<?xml version="1.0" encoding="UTF-8" standalone="no"?>
<svg
   viewBox="0 0 48 48"
   version="1.1"
   id="svg42"
   sodipodi:docname="spotify-access-denied.svg"
   inkscape:version="1.2.2 (732a01da63, 2022-12-09)"
   xmlns:inkscape="http://www.inkscape.org/namespaces/inkscape"
   xmlns:sodipodi="http://sodipodi.sourceforge.net/DTD/sodipodi-0.dtd"
   xmlns="http://www.w3.org/2000/svg"
   xmlns:svg="http://www.w3.org/2000/svg">
  <sodipodi:namedview
     id="namedview44"
     pagecolor="#ffffff"
     bordercolor="#000000"
     borderopacity="0.25"
     inkscape:showpageshadow="2"
     inkscape:pageopacity="0.0"
     inkscape:pagecheckerboard="0"
     inkscape:deskcolor="#d1d1d1"
     showgrid="false"
     inkscape:zoom="17.4375"
     inkscape:cx="14.824373"
     inkscape:cy="24.028674"
     inkscape:window-width="1920"
     inkscape:window-height="1017"
     inkscape:window-x="1358"
     inkscape:window-y="-8"
     inkscape:window-maximized="1"
     inkscape:current-layer="svg42" />
  <defs
     id="defs34">
    <linearGradient
       id="0"
       x1="51.56"
       y1="61.46"
       x2="51.988"
       y2="14.3"
       gradientUnits="userSpaceOnUse"
       gradientTransform="matrix(0.99999,0,0,0.99999,-28.371,-14.278)">
      <stop
         stop-color="#23cf5f"
         id="stop24" />
      <stop
         offset="1"
         stop-color="#60ff98"
         id="stop26" />
    </linearGradient>
    <linearGradient
       id="1"
       gradientUnits="userSpaceOnUse"
       x1="53.57"
       y1="62.47"
       x2="53.798"
       y2="13.896"
       gradientTransform="matrix(0.99999,0,0,0.99999,-28.371,-14.278)">
      <stop
         stop-color="#2e3436"
         id="stop29" />
      <stop
         offset="1"
         stop-color="#555753"
         id="stop31" />
    </linearGradient>
  </defs>
  <g
     id="g3789">
    <circle
       r="23.99976"
       cy="24.001616"
       cx="23.998476"
       fill="url(#1)"
       id="circle36"
       style="fill:url(#1);stroke-width:0.99999" />
    <path
       d="m 24.008476,0.00685715 c -13.254867,0 -23.9997598,10.74489285 -23.9997598,23.99975985 0,13.254868 10.7448928,23.99976 23.9997598,23.99976 13.254868,0 23.99976,-10.745892 23.99976,-23.99976 0,-13.254867 -10.744892,-23.99975985 -23.99976,-23.99975985 M 20.486511,12.532732 c 7.04993,0 14.461856,1.449985 19.877802,4.630954 0.729992,0.412995 1.236987,1.036989 1.236987,2.179978 0,1.307987 -1.051989,2.248977 -2.263977,2.248977 -0.488995,0 -0.778992,-0.118999 -1.236988,-0.369996 -4.343956,-2.604974 -11.089889,-4.03996 -17.604824,-4.03996 -3.253967,0 -6.559934,0.330997 -9.586904,1.152989 -0.348996,0.088 -0.788992,0.261997 -1.2309875,0.261997 -1.2799872,0 -2.2629774,-1.01299 -2.2629774,-2.292977 0,-1.303987 0.807992,-2.035979 1.6799832,-2.293977 3.4209657,-1.00999 7.2399277,-1.477985 11.3908857,-1.477985 m -0.488995,8.246917 c 6.281937,0 12.358877,1.564985 17.139829,4.423956 0.800992,0.458996 1.095989,1.04299 1.095989,1.896981 0,1.03899 -0.826992,1.878981 -1.870981,1.878981 -0.520995,0 -0.847992,-0.209997 -1.201988,-0.415995 -3.903961,-2.316977 -9.314907,-3.855962 -15.239848,-3.855962 -3.03897,0 -5.661943,0.425996 -7.832922,0.99999 -0.467995,0.128999 -0.729992,0.266997 -1.167988,0.266997 -1.0319896,0 -1.8749812,-0.840991 -1.8749812,-1.881981 0,-1.020989 0.4949951,-1.722982 1.4929852,-1.99998 2.697973,-0.740992 5.452945,-1.312987 9.462905,-1.312987 m 0.328997,7.836922 c 5.251947,0 9.931901,1.204988 13.95986,3.618964 0.598994,0.349996 0.950991,0.707993 0.950991,1.594984 0,0.864991 -0.703993,1.500985 -1.492985,1.500985 -0.387996,0 -0.652994,-0.134999 -1.01599,-0.355997 -3.477965,-2.103978 -7.814922,-3.210967 -12.417876,-3.210967 -2.567974,0 -5.152948,0.328996 -7.569924,0.832991 -0.392996,0.085 -0.887991,0.236998 -1.182988,0.236998 -0.910991,0 -1.518985,-0.723993 -1.518985,-1.507985 0,-1.00999 0.581994,-1.510985 1.305987,-1.648984 2.96397,-0.675993 5.916941,-1.060989 8.98291,-1.060989"
       fill="url(#0)"
       id="path38"
       style="fill:#ffb6c1;stroke-width:0.99999;fill-opacity:1" />
  </g>
</svg>
